<mxfile host="app.diagrams.net" modified="2023-10-25T07:01:56.913Z" agent="Mozilla/5.0 (Windows NT 10.0; Win64; x64) AppleWebKit/537.36 (KHTML, like Gecko) Chrome/118.0.0.0 Safari/537.36" etag="BfzLlbDVDdehLfxDiTel" version="22.0.7" type="google">
  <diagram name="第 1 页" id="SMtvmzs_cVKIkNfwrx-x">
    <mxGraphModel grid="1" page="1" gridSize="10" guides="1" tooltips="1" connect="1" arrows="1" fold="1" pageScale="1" pageWidth="827" pageHeight="1169" math="0" shadow="0">
      <root>
        <mxCell id="0" />
        <mxCell id="1" parent="0" />
        <mxCell id="juZ9jlZxh4bpGyxR_7Y2-1" value="Card" style="swimlane;fontStyle=1;align=center;verticalAlign=top;childLayout=stackLayout;horizontal=1;startSize=26;horizontalStack=0;resizeParent=1;resizeParentMax=0;resizeLast=0;collapsible=1;marginBottom=0;whiteSpace=wrap;html=1;" vertex="1" parent="1">
          <mxGeometry x="120" y="1460" width="160" height="60" as="geometry" />
        </mxCell>
        <mxCell id="juZ9jlZxh4bpGyxR_7Y2-2" value="cardno:char(10)" style="text;strokeColor=none;fillColor=none;align=left;verticalAlign=top;spacingLeft=4;spacingRight=4;overflow=hidden;rotatable=0;points=[[0,0.5],[1,0.5]];portConstraint=eastwest;whiteSpace=wrap;html=1;" vertex="1" parent="juZ9jlZxh4bpGyxR_7Y2-1">
          <mxGeometry y="26" width="160" height="26" as="geometry" />
        </mxCell>
        <mxCell id="juZ9jlZxh4bpGyxR_7Y2-3" value="" style="line;strokeWidth=1;fillColor=none;align=left;verticalAlign=middle;spacingTop=-1;spacingLeft=3;spacingRight=3;rotatable=0;labelPosition=right;points=[];portConstraint=eastwest;strokeColor=inherit;" vertex="1" parent="juZ9jlZxh4bpGyxR_7Y2-1">
          <mxGeometry y="52" width="160" height="8" as="geometry" />
        </mxCell>
        <mxCell id="juZ9jlZxh4bpGyxR_7Y2-5" value="Recharge" style="swimlane;fontStyle=1;align=center;verticalAlign=top;childLayout=stackLayout;horizontal=1;startSize=26;horizontalStack=0;resizeParent=1;resizeParentMax=0;resizeLast=0;collapsible=1;marginBottom=0;whiteSpace=wrap;html=1;" vertex="1" parent="1">
          <mxGeometry x="460" y="1470" width="160" height="88" as="geometry" />
        </mxCell>
        <mxCell id="juZ9jlZxh4bpGyxR_7Y2-6" value="studentno&lt;br&gt;cardno&lt;br&gt;addmoney" style="text;strokeColor=none;fillColor=none;align=left;verticalAlign=top;spacingLeft=4;spacingRight=4;overflow=hidden;rotatable=0;points=[[0,0.5],[1,0.5]];portConstraint=eastwest;whiteSpace=wrap;html=1;" vertex="1" parent="juZ9jlZxh4bpGyxR_7Y2-5">
          <mxGeometry y="26" width="160" height="54" as="geometry" />
        </mxCell>
        <mxCell id="juZ9jlZxh4bpGyxR_7Y2-7" value="" style="line;strokeWidth=1;fillColor=none;align=left;verticalAlign=middle;spacingTop=-1;spacingLeft=3;spacingRight=3;rotatable=0;labelPosition=right;points=[];portConstraint=eastwest;strokeColor=inherit;" vertex="1" parent="juZ9jlZxh4bpGyxR_7Y2-5">
          <mxGeometry y="80" width="160" height="8" as="geometry" />
        </mxCell>
        <mxCell id="juZ9jlZxh4bpGyxR_7Y2-10" value="CancelCard" style="swimlane;fontStyle=1;align=center;verticalAlign=top;childLayout=stackLayout;horizontal=1;startSize=26;horizontalStack=0;resizeParent=1;resizeParentMax=0;resizeLast=0;collapsible=1;marginBottom=0;whiteSpace=wrap;html=1;" vertex="1" parent="1">
          <mxGeometry x="450" y="1310" width="160" height="88" as="geometry" />
        </mxCell>
        <mxCell id="juZ9jlZxh4bpGyxR_7Y2-11" value="studentno&lt;br&gt;cancelcash&lt;br&gt;userID" style="text;strokeColor=none;fillColor=none;align=left;verticalAlign=top;spacingLeft=4;spacingRight=4;overflow=hidden;rotatable=0;points=[[0,0.5],[1,0.5]];portConstraint=eastwest;whiteSpace=wrap;html=1;" vertex="1" parent="juZ9jlZxh4bpGyxR_7Y2-10">
          <mxGeometry y="26" width="160" height="54" as="geometry" />
        </mxCell>
        <mxCell id="juZ9jlZxh4bpGyxR_7Y2-12" value="" style="line;strokeWidth=1;fillColor=none;align=left;verticalAlign=middle;spacingTop=-1;spacingLeft=3;spacingRight=3;rotatable=0;labelPosition=right;points=[];portConstraint=eastwest;strokeColor=inherit;" vertex="1" parent="juZ9jlZxh4bpGyxR_7Y2-10">
          <mxGeometry y="80" width="160" height="8" as="geometry" />
        </mxCell>
        <mxCell id="juZ9jlZxh4bpGyxR_7Y2-13" value="CheckDay" style="swimlane;fontStyle=1;align=center;verticalAlign=top;childLayout=stackLayout;horizontal=1;startSize=26;horizontalStack=0;resizeParent=1;resizeParentMax=0;resizeLast=0;collapsible=1;marginBottom=0;whiteSpace=wrap;html=1;" vertex="1" parent="1">
          <mxGeometry x="460" y="1180" width="160" height="68" as="geometry" />
        </mxCell>
        <mxCell id="juZ9jlZxh4bpGyxR_7Y2-14" value="userID&lt;br&gt;AllCash" style="text;strokeColor=none;fillColor=none;align=left;verticalAlign=top;spacingLeft=4;spacingRight=4;overflow=hidden;rotatable=0;points=[[0,0.5],[1,0.5]];portConstraint=eastwest;whiteSpace=wrap;html=1;" vertex="1" parent="juZ9jlZxh4bpGyxR_7Y2-13">
          <mxGeometry y="26" width="160" height="34" as="geometry" />
        </mxCell>
        <mxCell id="juZ9jlZxh4bpGyxR_7Y2-15" value="" style="line;strokeWidth=1;fillColor=none;align=left;verticalAlign=middle;spacingTop=-1;spacingLeft=3;spacingRight=3;rotatable=0;labelPosition=right;points=[];portConstraint=eastwest;strokeColor=inherit;" vertex="1" parent="juZ9jlZxh4bpGyxR_7Y2-13">
          <mxGeometry y="60" width="160" height="8" as="geometry" />
        </mxCell>
        <mxCell id="juZ9jlZxh4bpGyxR_7Y2-16" value="CheckWeek" style="swimlane;fontStyle=1;align=center;verticalAlign=top;childLayout=stackLayout;horizontal=1;startSize=26;horizontalStack=0;resizeParent=1;resizeParentMax=0;resizeLast=0;collapsible=1;marginBottom=0;whiteSpace=wrap;html=1;" vertex="1" parent="1">
          <mxGeometry x="700" y="1140" width="160" height="58" as="geometry" />
        </mxCell>
        <mxCell id="juZ9jlZxh4bpGyxR_7Y2-17" value="userID" style="text;strokeColor=none;fillColor=none;align=left;verticalAlign=top;spacingLeft=4;spacingRight=4;overflow=hidden;rotatable=0;points=[[0,0.5],[1,0.5]];portConstraint=eastwest;whiteSpace=wrap;html=1;" vertex="1" parent="juZ9jlZxh4bpGyxR_7Y2-16">
          <mxGeometry y="26" width="160" height="24" as="geometry" />
        </mxCell>
        <mxCell id="juZ9jlZxh4bpGyxR_7Y2-18" value="" style="line;strokeWidth=1;fillColor=none;align=left;verticalAlign=middle;spacingTop=-1;spacingLeft=3;spacingRight=3;rotatable=0;labelPosition=right;points=[];portConstraint=eastwest;strokeColor=inherit;" vertex="1" parent="juZ9jlZxh4bpGyxR_7Y2-16">
          <mxGeometry y="50" width="160" height="8" as="geometry" />
        </mxCell>
        <mxCell id="juZ9jlZxh4bpGyxR_7Y2-20" value="BasicData" style="swimlane;fontStyle=1;align=center;verticalAlign=top;childLayout=stackLayout;horizontal=1;startSize=26;horizontalStack=0;resizeParent=1;resizeParentMax=0;resizeLast=0;collapsible=1;marginBottom=0;whiteSpace=wrap;html=1;" vertex="1" parent="1">
          <mxGeometry x="480" y="990" width="160" height="68" as="geometry" />
        </mxCell>
        <mxCell id="juZ9jlZxh4bpGyxR_7Y2-21" value="Rate:numeric&lt;br&gt;tmpRate:numeric" style="text;strokeColor=none;fillColor=none;align=left;verticalAlign=top;spacingLeft=4;spacingRight=4;overflow=hidden;rotatable=0;points=[[0,0.5],[1,0.5]];portConstraint=eastwest;whiteSpace=wrap;html=1;" vertex="1" parent="juZ9jlZxh4bpGyxR_7Y2-20">
          <mxGeometry y="26" width="160" height="34" as="geometry" />
        </mxCell>
        <mxCell id="juZ9jlZxh4bpGyxR_7Y2-22" value="" style="line;strokeWidth=1;fillColor=none;align=left;verticalAlign=middle;spacingTop=-1;spacingLeft=3;spacingRight=3;rotatable=0;labelPosition=right;points=[];portConstraint=eastwest;strokeColor=inherit;" vertex="1" parent="juZ9jlZxh4bpGyxR_7Y2-20">
          <mxGeometry y="60" width="160" height="8" as="geometry" />
        </mxCell>
        <mxCell id="juZ9jlZxh4bpGyxR_7Y2-23" value="Worklog" style="swimlane;fontStyle=1;align=center;verticalAlign=top;childLayout=stackLayout;horizontal=1;startSize=26;horizontalStack=0;resizeParent=1;resizeParentMax=0;resizeLast=0;collapsible=1;marginBottom=0;whiteSpace=wrap;html=1;" vertex="1" parent="1">
          <mxGeometry x="620" y="850" width="160" height="68" as="geometry" />
        </mxCell>
        <mxCell id="juZ9jlZxh4bpGyxR_7Y2-24" value="serial:numeric&lt;br&gt;userID:char(10)" style="text;strokeColor=none;fillColor=none;align=left;verticalAlign=top;spacingLeft=4;spacingRight=4;overflow=hidden;rotatable=0;points=[[0,0.5],[1,0.5]];portConstraint=eastwest;whiteSpace=wrap;html=1;" vertex="1" parent="juZ9jlZxh4bpGyxR_7Y2-23">
          <mxGeometry y="26" width="160" height="34" as="geometry" />
        </mxCell>
        <mxCell id="juZ9jlZxh4bpGyxR_7Y2-25" value="" style="line;strokeWidth=1;fillColor=none;align=left;verticalAlign=middle;spacingTop=-1;spacingLeft=3;spacingRight=3;rotatable=0;labelPosition=right;points=[];portConstraint=eastwest;strokeColor=inherit;" vertex="1" parent="juZ9jlZxh4bpGyxR_7Y2-23">
          <mxGeometry y="60" width="160" height="8" as="geometry" />
        </mxCell>
        <mxCell id="juZ9jlZxh4bpGyxR_7Y2-26" value="Line" style="swimlane;fontStyle=1;align=center;verticalAlign=top;childLayout=stackLayout;horizontal=1;startSize=26;horizontalStack=0;resizeParent=1;resizeParentMax=0;resizeLast=0;collapsible=1;marginBottom=0;whiteSpace=wrap;html=1;" vertex="1" parent="1">
          <mxGeometry x="630" y="730" width="160" height="98" as="geometry" />
        </mxCell>
        <mxCell id="juZ9jlZxh4bpGyxR_7Y2-27" value="ondate:date&lt;br&gt;ontime:time(0)&lt;br&gt;offdate:date&lt;br&gt;offtime:time(0)" style="text;strokeColor=none;fillColor=none;align=left;verticalAlign=top;spacingLeft=4;spacingRight=4;overflow=hidden;rotatable=0;points=[[0,0.5],[1,0.5]];portConstraint=eastwest;whiteSpace=wrap;html=1;" vertex="1" parent="juZ9jlZxh4bpGyxR_7Y2-26">
          <mxGeometry y="26" width="160" height="64" as="geometry" />
        </mxCell>
        <mxCell id="juZ9jlZxh4bpGyxR_7Y2-28" value="" style="line;strokeWidth=1;fillColor=none;align=left;verticalAlign=middle;spacingTop=-1;spacingLeft=3;spacingRight=3;rotatable=0;labelPosition=right;points=[];portConstraint=eastwest;strokeColor=inherit;" vertex="1" parent="juZ9jlZxh4bpGyxR_7Y2-26">
          <mxGeometry y="90" width="160" height="8" as="geometry" />
        </mxCell>
        <mxCell id="juZ9jlZxh4bpGyxR_7Y2-29" value="Onwork" style="swimlane;fontStyle=1;align=center;verticalAlign=top;childLayout=stackLayout;horizontal=1;startSize=26;horizontalStack=0;resizeParent=1;resizeParentMax=0;resizeLast=0;collapsible=1;marginBottom=0;whiteSpace=wrap;html=1;" vertex="1" parent="1">
          <mxGeometry x="380" y="870" width="160" height="68" as="geometry" />
        </mxCell>
        <mxCell id="juZ9jlZxh4bpGyxR_7Y2-30" value="userID:char(10)&lt;br&gt;Level:char(10)" style="text;strokeColor=none;fillColor=none;align=left;verticalAlign=top;spacingLeft=4;spacingRight=4;overflow=hidden;rotatable=0;points=[[0,0.5],[1,0.5]];portConstraint=eastwest;whiteSpace=wrap;html=1;" vertex="1" parent="juZ9jlZxh4bpGyxR_7Y2-29">
          <mxGeometry y="26" width="160" height="34" as="geometry" />
        </mxCell>
        <mxCell id="juZ9jlZxh4bpGyxR_7Y2-31" value="" style="line;strokeWidth=1;fillColor=none;align=left;verticalAlign=middle;spacingTop=-1;spacingLeft=3;spacingRight=3;rotatable=0;labelPosition=right;points=[];portConstraint=eastwest;strokeColor=inherit;" vertex="1" parent="juZ9jlZxh4bpGyxR_7Y2-29">
          <mxGeometry y="60" width="160" height="8" as="geometry" />
        </mxCell>
        <mxCell id="juZ9jlZxh4bpGyxR_7Y2-35" value="Admin User" style="swimlane;fontStyle=1;align=center;verticalAlign=top;childLayout=stackLayout;horizontal=1;startSize=26;horizontalStack=0;resizeParent=1;resizeParentMax=0;resizeLast=0;collapsible=1;marginBottom=0;whiteSpace=wrap;html=1;" vertex="1" parent="1">
          <mxGeometry x="140" y="1221" width="160" height="140" as="geometry" />
        </mxCell>
        <mxCell id="juZ9jlZxh4bpGyxR_7Y2-36" value="userName&lt;br&gt;pwd" style="text;strokeColor=none;fillColor=none;align=left;verticalAlign=top;spacingLeft=4;spacingRight=4;overflow=hidden;rotatable=0;points=[[0,0.5],[1,0.5]];portConstraint=eastwest;whiteSpace=wrap;html=1;" vertex="1" parent="juZ9jlZxh4bpGyxR_7Y2-35">
          <mxGeometry y="26" width="160" height="34" as="geometry" />
        </mxCell>
        <mxCell id="juZ9jlZxh4bpGyxR_7Y2-37" value="" style="line;strokeWidth=1;fillColor=none;align=left;verticalAlign=middle;spacingTop=-1;spacingLeft=3;spacingRight=3;rotatable=0;labelPosition=right;points=[];portConstraint=eastwest;strokeColor=inherit;" vertex="1" parent="juZ9jlZxh4bpGyxR_7Y2-35">
          <mxGeometry y="60" width="160" height="8" as="geometry" />
        </mxCell>
        <mxCell id="juZ9jlZxh4bpGyxR_7Y2-38" value="Account()&lt;br&gt;Add or Delete User()&lt;br&gt;Set the BasicData()&lt;br&gt;Online Teacher()" style="text;strokeColor=none;fillColor=none;align=left;verticalAlign=top;spacingLeft=4;spacingRight=4;overflow=hidden;rotatable=0;points=[[0,0.5],[1,0.5]];portConstraint=eastwest;whiteSpace=wrap;html=1;" vertex="1" parent="juZ9jlZxh4bpGyxR_7Y2-35">
          <mxGeometry y="68" width="160" height="72" as="geometry" />
        </mxCell>
        <mxCell id="juZ9jlZxh4bpGyxR_7Y2-39" value="User" style="swimlane;fontStyle=1;align=center;verticalAlign=top;childLayout=stackLayout;horizontal=1;startSize=26;horizontalStack=0;resizeParent=1;resizeParentMax=0;resizeLast=0;collapsible=1;marginBottom=0;whiteSpace=wrap;html=1;" vertex="1" parent="1">
          <mxGeometry x="100" y="1070" width="160" height="88" as="geometry">
            <mxRectangle x="100" y="1070" width="70" height="30" as="alternateBounds" />
          </mxGeometry>
        </mxCell>
        <mxCell id="juZ9jlZxh4bpGyxR_7Y2-40" value="userID:int&lt;br&gt;userName:char(10)&lt;br&gt;pwd:char(10)" style="text;strokeColor=none;fillColor=none;align=left;verticalAlign=top;spacingLeft=4;spacingRight=4;overflow=hidden;rotatable=0;points=[[0,0.5],[1,0.5]];portConstraint=eastwest;whiteSpace=wrap;html=1;" vertex="1" parent="juZ9jlZxh4bpGyxR_7Y2-39">
          <mxGeometry y="26" width="160" height="54" as="geometry" />
        </mxCell>
        <mxCell id="juZ9jlZxh4bpGyxR_7Y2-41" value="" style="line;strokeWidth=1;fillColor=none;align=left;verticalAlign=middle;spacingTop=-1;spacingLeft=3;spacingRight=3;rotatable=0;labelPosition=right;points=[];portConstraint=eastwest;strokeColor=inherit;" vertex="1" parent="juZ9jlZxh4bpGyxR_7Y2-39">
          <mxGeometry y="80" width="160" height="8" as="geometry" />
        </mxCell>
        <mxCell id="juZ9jlZxh4bpGyxR_7Y2-42" value="Online" style="swimlane;fontStyle=1;align=center;verticalAlign=top;childLayout=stackLayout;horizontal=1;startSize=26;horizontalStack=0;resizeParent=1;resizeParentMax=0;resizeLast=0;collapsible=1;marginBottom=0;whiteSpace=wrap;html=1;" vertex="1" parent="1">
          <mxGeometry x="90" y="740" width="160" height="128" as="geometry" />
        </mxCell>
        <mxCell id="juZ9jlZxh4bpGyxR_7Y2-43" value="cardno:char(10)&lt;br&gt;studentno:chat(10)&lt;br&gt;studentName:char(10)&lt;br&gt;ondate:date&lt;br&gt;compputer:char(10)&lt;br&gt;ontime:time(0)" style="text;strokeColor=none;fillColor=none;align=left;verticalAlign=top;spacingLeft=4;spacingRight=4;overflow=hidden;rotatable=0;points=[[0,0.5],[1,0.5]];portConstraint=eastwest;whiteSpace=wrap;html=1;" vertex="1" parent="juZ9jlZxh4bpGyxR_7Y2-42">
          <mxGeometry y="26" width="160" height="94" as="geometry" />
        </mxCell>
        <mxCell id="juZ9jlZxh4bpGyxR_7Y2-44" value="" style="line;strokeWidth=1;fillColor=none;align=left;verticalAlign=middle;spacingTop=-1;spacingLeft=3;spacingRight=3;rotatable=0;labelPosition=right;points=[];portConstraint=eastwest;strokeColor=inherit;" vertex="1" parent="juZ9jlZxh4bpGyxR_7Y2-42">
          <mxGeometry y="120" width="160" height="8" as="geometry" />
        </mxCell>
        <mxCell id="juZ9jlZxh4bpGyxR_7Y2-45" value="Operator" style="swimlane;fontStyle=1;align=center;verticalAlign=top;childLayout=stackLayout;horizontal=1;startSize=26;horizontalStack=0;resizeParent=1;resizeParentMax=0;resizeLast=0;collapsible=1;marginBottom=0;whiteSpace=wrap;html=1;" vertex="1" parent="1">
          <mxGeometry x="-180" y="1221" width="200" height="190" as="geometry" />
        </mxCell>
        <mxCell id="juZ9jlZxh4bpGyxR_7Y2-46" value="userName&lt;br&gt;pwd" style="text;strokeColor=none;fillColor=none;align=left;verticalAlign=top;spacingLeft=4;spacingRight=4;overflow=hidden;rotatable=0;points=[[0,0.5],[1,0.5]];portConstraint=eastwest;whiteSpace=wrap;html=1;" vertex="1" parent="juZ9jlZxh4bpGyxR_7Y2-45">
          <mxGeometry y="26" width="200" height="34" as="geometry" />
        </mxCell>
        <mxCell id="juZ9jlZxh4bpGyxR_7Y2-47" value="" style="line;strokeWidth=1;fillColor=none;align=left;verticalAlign=middle;spacingTop=-1;spacingLeft=3;spacingRight=3;rotatable=0;labelPosition=right;points=[];portConstraint=eastwest;strokeColor=inherit;" vertex="1" parent="juZ9jlZxh4bpGyxR_7Y2-45">
          <mxGeometry y="60" width="200" height="8" as="geometry" />
        </mxCell>
        <mxCell id="juZ9jlZxh4bpGyxR_7Y2-48" value="Register()&lt;br&gt;Recharge()&lt;br&gt;CancelCard()&lt;br&gt;Check the Money()&lt;br&gt;Check the Retum Money()&lt;br&gt;Maintain the Student BasicDate()&lt;br&gt;Check the Student Online()&lt;br&gt;Operate Recording()" style="text;strokeColor=none;fillColor=none;align=left;verticalAlign=top;spacingLeft=4;spacingRight=4;overflow=hidden;rotatable=0;points=[[0,0.5],[1,0.5]];portConstraint=eastwest;whiteSpace=wrap;html=1;" vertex="1" parent="juZ9jlZxh4bpGyxR_7Y2-45">
          <mxGeometry y="68" width="200" height="122" as="geometry" />
        </mxCell>
        <mxCell id="juZ9jlZxh4bpGyxR_7Y2-49" value="General User" style="swimlane;fontStyle=1;align=center;verticalAlign=top;childLayout=stackLayout;horizontal=1;startSize=26;horizontalStack=0;resizeParent=1;resizeParentMax=0;resizeLast=0;collapsible=1;marginBottom=0;whiteSpace=wrap;html=1;" vertex="1" parent="1">
          <mxGeometry x="-200" y="970" width="160" height="130" as="geometry" />
        </mxCell>
        <mxCell id="juZ9jlZxh4bpGyxR_7Y2-50" value="userName:char(10)" style="text;strokeColor=none;fillColor=none;align=left;verticalAlign=top;spacingLeft=4;spacingRight=4;overflow=hidden;rotatable=0;points=[[0,0.5],[1,0.5]];portConstraint=eastwest;whiteSpace=wrap;html=1;" vertex="1" parent="juZ9jlZxh4bpGyxR_7Y2-49">
          <mxGeometry y="26" width="160" height="24" as="geometry" />
        </mxCell>
        <mxCell id="juZ9jlZxh4bpGyxR_7Y2-51" value="" style="line;strokeWidth=1;fillColor=none;align=left;verticalAlign=middle;spacingTop=-1;spacingLeft=3;spacingRight=3;rotatable=0;labelPosition=right;points=[];portConstraint=eastwest;strokeColor=inherit;" vertex="1" parent="juZ9jlZxh4bpGyxR_7Y2-49">
          <mxGeometry y="50" width="160" height="8" as="geometry" />
        </mxCell>
        <mxCell id="juZ9jlZxh4bpGyxR_7Y2-52" value="Check the balance()&lt;br&gt;Check Online Record()&lt;br&gt;Check Recharge Record()&lt;br&gt;Check Student Staatus()" style="text;strokeColor=none;fillColor=none;align=left;verticalAlign=top;spacingLeft=4;spacingRight=4;overflow=hidden;rotatable=0;points=[[0,0.5],[1,0.5]];portConstraint=eastwest;whiteSpace=wrap;html=1;" vertex="1" parent="juZ9jlZxh4bpGyxR_7Y2-49">
          <mxGeometry y="58" width="160" height="72" as="geometry" />
        </mxCell>
        <mxCell id="juZ9jlZxh4bpGyxR_7Y2-53" value="Student" style="swimlane;fontStyle=1;align=center;verticalAlign=top;childLayout=stackLayout;horizontal=1;startSize=26;horizontalStack=0;resizeParent=1;resizeParentMax=0;resizeLast=0;collapsible=1;marginBottom=0;whiteSpace=wrap;html=1;" vertex="1" parent="1">
          <mxGeometry x="-200" y="720" width="160" height="90" as="geometry" />
        </mxCell>
        <mxCell id="juZ9jlZxh4bpGyxR_7Y2-54" value="studentNo:char(10)&lt;br&gt;cardno:char(10)" style="text;strokeColor=none;fillColor=none;align=left;verticalAlign=top;spacingLeft=4;spacingRight=4;overflow=hidden;rotatable=0;points=[[0,0.5],[1,0.5]];portConstraint=eastwest;whiteSpace=wrap;html=1;" vertex="1" parent="juZ9jlZxh4bpGyxR_7Y2-53">
          <mxGeometry y="26" width="160" height="34" as="geometry" />
        </mxCell>
        <mxCell id="juZ9jlZxh4bpGyxR_7Y2-55" value="" style="line;strokeWidth=1;fillColor=none;align=left;verticalAlign=middle;spacingTop=-1;spacingLeft=3;spacingRight=3;rotatable=0;labelPosition=right;points=[];portConstraint=eastwest;strokeColor=inherit;" vertex="1" parent="juZ9jlZxh4bpGyxR_7Y2-53">
          <mxGeometry y="60" width="160" height="8" as="geometry" />
        </mxCell>
        <mxCell id="juZ9jlZxh4bpGyxR_7Y2-56" value="Modify Password()" style="text;strokeColor=none;fillColor=none;align=left;verticalAlign=top;spacingLeft=4;spacingRight=4;overflow=hidden;rotatable=0;points=[[0,0.5],[1,0.5]];portConstraint=eastwest;whiteSpace=wrap;html=1;" vertex="1" parent="juZ9jlZxh4bpGyxR_7Y2-53">
          <mxGeometry y="68" width="160" height="22" as="geometry" />
        </mxCell>
        <mxCell id="juZ9jlZxh4bpGyxR_7Y2-57" value="" style="endArrow=open;endFill=1;endSize=12;html=1;rounded=0;exitX=0;exitY=0.5;exitDx=0;exitDy=0;entryX=1;entryY=0.25;entryDx=0;entryDy=0;" edge="1" parent="1" source="juZ9jlZxh4bpGyxR_7Y2-11" target="juZ9jlZxh4bpGyxR_7Y2-1">
          <mxGeometry width="160" relative="1" as="geometry">
            <mxPoint x="280" y="1420" as="sourcePoint" />
            <mxPoint x="340" y="1540" as="targetPoint" />
          </mxGeometry>
        </mxCell>
        <mxCell id="juZ9jlZxh4bpGyxR_7Y2-58" value="" style="endArrow=open;endFill=1;endSize=12;html=1;rounded=0;exitX=0;exitY=0.5;exitDx=0;exitDy=0;entryX=1;entryY=0.5;entryDx=0;entryDy=0;" edge="1" parent="1" source="juZ9jlZxh4bpGyxR_7Y2-5" target="juZ9jlZxh4bpGyxR_7Y2-2">
          <mxGeometry width="160" relative="1" as="geometry">
            <mxPoint x="460" y="1373" as="sourcePoint" />
            <mxPoint x="290" y="1485" as="targetPoint" />
            <Array as="points" />
          </mxGeometry>
        </mxCell>
        <mxCell id="juZ9jlZxh4bpGyxR_7Y2-59" value="" style="endArrow=block;dashed=1;endFill=0;endSize=12;html=1;rounded=0;entryX=0;entryY=0.5;entryDx=0;entryDy=0;exitX=1;exitY=0;exitDx=0;exitDy=0;" edge="1" parent="1" source="juZ9jlZxh4bpGyxR_7Y2-1" target="juZ9jlZxh4bpGyxR_7Y2-14">
          <mxGeometry width="160" relative="1" as="geometry">
            <mxPoint x="350" y="1380" as="sourcePoint" />
            <mxPoint x="510" y="1380" as="targetPoint" />
          </mxGeometry>
        </mxCell>
        <mxCell id="juZ9jlZxh4bpGyxR_7Y2-60" value="" style="endArrow=block;dashed=1;endFill=0;endSize=12;html=1;rounded=0;entryX=1;entryY=0.5;entryDx=0;entryDy=0;exitX=0;exitY=0.5;exitDx=0;exitDy=0;" edge="1" parent="1" source="juZ9jlZxh4bpGyxR_7Y2-17" target="juZ9jlZxh4bpGyxR_7Y2-14">
          <mxGeometry width="160" relative="1" as="geometry">
            <mxPoint x="290" y="1470" as="sourcePoint" />
            <mxPoint x="470" y="1233" as="targetPoint" />
          </mxGeometry>
        </mxCell>
        <mxCell id="juZ9jlZxh4bpGyxR_7Y2-61" value="" style="endArrow=block;dashed=1;endFill=0;endSize=12;html=1;rounded=0;entryX=0.25;entryY=0;entryDx=0;entryDy=0;exitX=1.016;exitY=0.943;exitDx=0;exitDy=0;exitPerimeter=0;" edge="1" parent="1" source="juZ9jlZxh4bpGyxR_7Y2-48" target="juZ9jlZxh4bpGyxR_7Y2-1">
          <mxGeometry width="160" relative="1" as="geometry">
            <mxPoint x="300" y="1480" as="sourcePoint" />
            <mxPoint x="480" y="1243" as="targetPoint" />
          </mxGeometry>
        </mxCell>
        <mxCell id="juZ9jlZxh4bpGyxR_7Y2-62" value="" style="endArrow=block;dashed=1;endFill=0;endSize=12;html=1;rounded=0;entryX=0.5;entryY=0;entryDx=0;entryDy=0;" edge="1" parent="1" source="juZ9jlZxh4bpGyxR_7Y2-38" target="juZ9jlZxh4bpGyxR_7Y2-1">
          <mxGeometry width="160" relative="1" as="geometry">
            <mxPoint x="310" y="1490" as="sourcePoint" />
            <mxPoint x="490" y="1253" as="targetPoint" />
          </mxGeometry>
        </mxCell>
        <mxCell id="juZ9jlZxh4bpGyxR_7Y2-63" value="" style="endArrow=open;endFill=1;endSize=12;html=1;rounded=0;entryX=0.5;entryY=0;entryDx=0;entryDy=0;" edge="1" parent="1" source="juZ9jlZxh4bpGyxR_7Y2-52" target="juZ9jlZxh4bpGyxR_7Y2-45">
          <mxGeometry width="160" relative="1" as="geometry">
            <mxPoint x="40" y="1165" as="sourcePoint" />
            <mxPoint x="-140" y="1150" as="targetPoint" />
            <Array as="points" />
          </mxGeometry>
        </mxCell>
        <mxCell id="juZ9jlZxh4bpGyxR_7Y2-64" value="" style="endArrow=open;endFill=1;endSize=12;html=1;rounded=0;exitX=1;exitY=0.5;exitDx=0;exitDy=0;entryX=0;entryY=0.5;entryDx=0;entryDy=0;" edge="1" parent="1" source="juZ9jlZxh4bpGyxR_7Y2-46" target="juZ9jlZxh4bpGyxR_7Y2-36">
          <mxGeometry width="160" relative="1" as="geometry">
            <mxPoint x="480" y="1534" as="sourcePoint" />
            <mxPoint x="300" y="1519" as="targetPoint" />
            <Array as="points" />
          </mxGeometry>
        </mxCell>
        <mxCell id="juZ9jlZxh4bpGyxR_7Y2-65" value="" style="endArrow=open;endFill=1;endSize=12;html=1;rounded=0;exitX=0.5;exitY=0;exitDx=0;exitDy=0;entryX=0.5;entryY=1;entryDx=0;entryDy=0;" edge="1" parent="1" source="juZ9jlZxh4bpGyxR_7Y2-35" target="juZ9jlZxh4bpGyxR_7Y2-39">
          <mxGeometry width="160" relative="1" as="geometry">
            <mxPoint x="490" y="1544" as="sourcePoint" />
            <mxPoint x="310" y="1529" as="targetPoint" />
            <Array as="points" />
          </mxGeometry>
        </mxCell>
        <mxCell id="juZ9jlZxh4bpGyxR_7Y2-66" value="" style="endArrow=block;dashed=1;endFill=0;endSize=12;html=1;rounded=0;entryX=0;entryY=0.5;entryDx=0;entryDy=0;exitX=1;exitY=0;exitDx=0;exitDy=0;" edge="1" parent="1" source="juZ9jlZxh4bpGyxR_7Y2-35" target="juZ9jlZxh4bpGyxR_7Y2-21">
          <mxGeometry width="160" relative="1" as="geometry">
            <mxPoint x="290" y="1470" as="sourcePoint" />
            <mxPoint x="470" y="1233" as="targetPoint" />
            <Array as="points">
              <mxPoint x="380" y="1140" />
            </Array>
          </mxGeometry>
        </mxCell>
        <mxCell id="juZ9jlZxh4bpGyxR_7Y2-67" value="" style="endArrow=block;startArrow=block;endFill=1;startFill=1;html=1;rounded=0;exitX=0.495;exitY=1.025;exitDx=0;exitDy=0;exitPerimeter=0;entryX=0.5;entryY=0;entryDx=0;entryDy=0;" edge="1" parent="1" source="juZ9jlZxh4bpGyxR_7Y2-56" target="juZ9jlZxh4bpGyxR_7Y2-49">
          <mxGeometry width="160" relative="1" as="geometry">
            <mxPoint x="350" y="1200" as="sourcePoint" />
            <mxPoint x="510" y="1200" as="targetPoint" />
          </mxGeometry>
        </mxCell>
        <mxCell id="juZ9jlZxh4bpGyxR_7Y2-68" value="" style="endArrow=block;dashed=1;endFill=0;endSize=12;html=1;rounded=0;entryX=0;entryY=0.5;entryDx=0;entryDy=0;exitX=1.011;exitY=0.182;exitDx=0;exitDy=0;exitPerimeter=0;" edge="1" parent="1" source="juZ9jlZxh4bpGyxR_7Y2-40" target="juZ9jlZxh4bpGyxR_7Y2-30">
          <mxGeometry width="160" relative="1" as="geometry">
            <mxPoint x="310" y="1231" as="sourcePoint" />
            <mxPoint x="490" y="1043" as="targetPoint" />
            <Array as="points" />
          </mxGeometry>
        </mxCell>
        <mxCell id="juZ9jlZxh4bpGyxR_7Y2-69" value="" style="endArrow=block;dashed=1;endFill=0;endSize=12;html=1;rounded=0;entryX=1;entryY=0.5;entryDx=0;entryDy=0;exitX=0.006;exitY=-0.16;exitDx=0;exitDy=0;exitPerimeter=0;" edge="1" parent="1" source="juZ9jlZxh4bpGyxR_7Y2-30" target="juZ9jlZxh4bpGyxR_7Y2-43">
          <mxGeometry width="160" relative="1" as="geometry">
            <mxPoint x="272" y="1116" as="sourcePoint" />
            <mxPoint x="390" y="923" as="targetPoint" />
            <Array as="points" />
          </mxGeometry>
        </mxCell>
        <mxCell id="juZ9jlZxh4bpGyxR_7Y2-70" value="" style="endArrow=block;dashed=1;endFill=0;endSize=12;html=1;rounded=0;entryX=0;entryY=0.5;entryDx=0;entryDy=0;exitX=1.001;exitY=0.242;exitDx=0;exitDy=0;exitPerimeter=0;" edge="1" parent="1" source="juZ9jlZxh4bpGyxR_7Y2-43" target="juZ9jlZxh4bpGyxR_7Y2-27">
          <mxGeometry width="160" relative="1" as="geometry">
            <mxPoint x="391" y="901" as="sourcePoint" />
            <mxPoint x="260" y="823" as="targetPoint" />
            <Array as="points" />
          </mxGeometry>
        </mxCell>
        <mxCell id="juZ9jlZxh4bpGyxR_7Y2-71" value="" style="endArrow=block;dashed=1;endFill=0;endSize=12;html=1;rounded=0;entryX=-0.011;entryY=0.739;entryDx=0;entryDy=0;exitX=1;exitY=0;exitDx=0;exitDy=0;entryPerimeter=0;" edge="1" parent="1" source="juZ9jlZxh4bpGyxR_7Y2-29" target="juZ9jlZxh4bpGyxR_7Y2-27">
          <mxGeometry width="160" relative="1" as="geometry">
            <mxPoint x="401" y="911" as="sourcePoint" />
            <mxPoint x="270" y="833" as="targetPoint" />
            <Array as="points" />
          </mxGeometry>
        </mxCell>
        <mxCell id="juZ9jlZxh4bpGyxR_7Y2-72" value="" style="endArrow=block;dashed=1;endFill=0;endSize=12;html=1;rounded=0;entryX=1;entryY=0.5;entryDx=0;entryDy=0;exitX=0;exitY=0.5;exitDx=0;exitDy=0;" edge="1" parent="1" source="juZ9jlZxh4bpGyxR_7Y2-24" target="juZ9jlZxh4bpGyxR_7Y2-30">
          <mxGeometry width="160" relative="1" as="geometry">
            <mxPoint x="411" y="921" as="sourcePoint" />
            <mxPoint x="280" y="843" as="targetPoint" />
            <Array as="points" />
          </mxGeometry>
        </mxCell>
      </root>
    </mxGraphModel>
  </diagram>
</mxfile>
